<svg viewBox="0 0 24 24" fill="none" xmlns="http://www.w3.org/2000/svg">
  <g id="Color=Default">
  <g id="Logomark/Colored">
  <path id="Path_9" d="M2.85311 13.9469C7.03238 9.5859 11.6045 5.6356 16.5091 2.14823C16.5598 2.11187 16.582 2.04637 16.5641 1.98579C16.5462 1.9252 16.4921 1.88319 16.4301 1.88159H7.90406C6.74973 1.93767 5.75105 2.7195 5.39928 3.84249L2.6108 13.8164C2.59374 13.881 2.62282 13.9491 2.68085 13.9804C2.73888 14.0116 2.8104 13.9978 2.85311 13.9469Z" fill="#FF0000"/>
  <path id="Path_10" d="M17.8486 11.562C20.0158 11.1857 22.2021 10.2984 22.9814 7.08434C23.8245 3.60728 21.2086 1.69983 18.2001 1.89527L13.5961 18.2816C13.304 19.2065 12.4832 19.854 11.5295 19.9121H9.76327L12.5494 10.0159C12.5708 9.95175 12.5465 9.88108 12.4905 9.84449C12.4345 9.80789 12.3611 9.81478 12.3127 9.86118C7.92526 13.7636 3.86847 18.0343 0.185207 22.6281C0.143629 22.6696 0.130387 22.7323 0.151547 22.7874C0.172707 22.8426 0.224192 22.8797 0.282416 22.8816H12.3297C17.4082 22.8816 20.1893 21.2807 21.196 17.4586C22.0198 14.3456 20.4123 12.222 17.8503 11.6731C17.8036 11.6653 17.7624 11.5782 17.8486 11.562Z" fill="black"/>
  </g>
  </g>
</svg>